<svg xmlns="http://www.w3.org/2000/svg" width="522.131" height="139.907" fill="none" viewBox="0 0 522.131 139.907">
        <path fill="#FFF" fill-rule="evenodd" d="M193.104 53.79h11.621c.261 0 .299.075.149.225-3.363 4.334-11.396 4.148-16.216 4.035h-.037c-4.334-.112-8.257-.298-11.321-2.466-4.82-3.363-4.671-12.593 0-16.068 4.334-3.213 12.591-2.765 18.308-2.354 3.736.262 8.295 2.13 9.827 6.166.037.15.186.261.336.261h21.671a.425.425 0 0 0 .299-.112.428.428 0 0 0 .112-.299c-1.42-20.29-28.359-20.59-42.445-20.328-12.779.262-29.779 2.952-32.731 18.236-.859 4.484-.859 9.342 0 13.116 3.4 15.283 19.765 17.674 32.768 18.048 7.921.224 15.431-.56 22.456-4.484.149-.112.224-.075.224.112l.112 3.438c0 .299.448.448.448.448h18.944c.224 0 .373-.15.373-.374V45.57c0-.224-.149-.374-.373-.374h-34.525c-.224 0-.373.15-.373.374v7.847c0 .224.149.373.373.373Zm83.997-14.312v16.105c0 .224.149.373.374.373h24.361c.224 0 .373.15.373.374v15.06c0 .224-.149.373-.373.373h-71.178c-.224 0-.374-.15-.374-.374V56.33c0-.224.15-.373.374-.373h24.249c.224 0 .374-.15.374-.374V39.478c0-.225-.15-.374-.374-.374h-24.249c-.224 0-.374-.15-.374-.374V23.671c0-.224.15-.373.374-.373h71.178c.224 0 .373.15.373.373v15.06c0 .224-.149.373-.373.373h-24.361a.374.374 0 0 0-.374.374Zm74.162 31.912V39.478c0-.187.15-.374.374-.336h24.361c.224 0 .374-.15.374-.374V23.71c0-.224-.15-.374-.374-.374H304.82c-.224 0-.373.15-.373.374v15.06c0 .223.149.373.373.373h24.249c.225 0 .374.149.374.373V71.39c0 .224.15.373.374.373h21.073c.224 0 .373-.15.373-.373Zm57.613 53.473h7.361c26.566 0 31.685-8.109 31.759-16.367v-.897c0-9.64-6.912-14.05-25.594-14.498l-9.229-.187c-8.22-.187-9.901-1.383-9.901-3.251v-.075c0-1.719 1.046-2.99 8.593-2.99h.337c7.622 0 9.005 2.355 9.266 4.037a.443.443 0 0 0 .448.373h23.988c.224 0 .373-.15.373-.373v-.187c0-7.847-5.791-14.835-30.937-14.835h-7.173c-23.017 0-29.443 6.053-29.443 14.424v.56c0 7.474 4.558 14.2 23.95 14.76l9.64.262c9.191.261 10.088 1.943 10.088 3.849v.112c0 1.98-1.569 3.848-9.378 3.848h-.262c-8.07 0-9.453-3.176-9.677-5.418a.444.444 0 0 0-.448-.374h-24.361c-.225 0-.374.15-.374.374v.187c0 6.128 2.802 16.666 30.974 16.666Zm113.255-14.648v13.49c0 .186-.187.373-.374.373h-71.178c-.224 0-.373-.149-.373-.373V76.809c0-.224.149-.374.373-.374h71.178c.225 0 .374.15.374.374v13.526c0 .225-.149.374-.374.374H471.69c-.224 0-.374.15-.374.374v3.438c0 .224.15.373.374.373h44.575c.224 0 .374.15.374.374v10.014c0 .225-.15.374-.374.374H471.69c-.224 0-.374.15-.374.374v3.438c0 .224.15.373.374.373h50.067c.225 0 .374.15.374.374ZM304.82 123.966c-.224 0-.373-.149-.373-.374V76.809c0-.224.149-.374.373-.374h51.151c12.106 0 19.654 3.4 19.654 12.07v.635c0 6.203-5.007 9.155-8.968 10.425-.411.15-.411.71.038.822 5.828 1.644 9.116 5.605 9.116 11.248v7.137c0 2.802.374 3.961.897 4.783v.374h-22.306a.462.462 0 0 1-.374-.187c-.261-.374-.299-.897-.299-1.719v-5.68c0-5.119-2.466-8.109-9.565-8.109h-18.233c-.224 0-.374.15-.374.374v14.984c0 .225-.149.374-.373.374H304.82Zm20.737-28.623c0 .224.15.374.374.374h22.157c3.661 0 4.932-1.458 4.932-3.438v-.075c0-1.98-1.308-3.438-4.932-3.438h-22.157c-.224 0-.374.15-.374.374v6.203Zm-23.349 14.872v13.49c0 .186-.15.373-.374.373h-71.178c-.224 0-.374-.149-.374-.373V76.809c0-.224.15-.374.374-.374h71.178c.224 0 .374.15.374.374v13.526c0 .225-.15.374-.374.374h-50.067c-.225 0-.374.15-.374.374v3.438c0 .224.149.373.374.373h44.574c.225 0 .374.15.374.374v10.014c0 .225-.149.374-.374.374h-44.574c-.225 0-.374.15-.374.374v3.438c0 .224.149.373.374.373h50.067c.224 0 .374.15.374.374Zm-95.802 13.751h-30.078c-.15 0-.262-.075-.336-.224l-23.203-46.71c-.15-.298.075-.635.411-.635h23.913c.149 0 .261.075.336.225l14.198 30.155c.15.299.561.299.673 0l13.376-30.155c.075-.15.187-.225.336-.225h21.858c.336 0 .523.337.411.598l-21.559 46.709c-.037.187-.187.262-.336.262ZM65.921 133.881c28.32 0 52.016-19.804 57.994-46.32.032-3.745-.213-7.567-.459-11.398-.386-6.002-.773-12.025-.093-17.8.293-2.496.579-5.082.844-7.713a62.898 62.898 0 0 1 4.547 23.56c0 34.833-28.234 63.07-63.064 63.07-34.829 0-63.063-28.237-63.063-63.07 0-27.478 17.57-50.852 42.087-59.497-.53 4.385-.745 9.396-.961 14.44-.13 3.014-.26 6.04-.457 8.95 0 .271.361.452.587.271l7.583-5.756a22.755 22.755 0 0 1 13.759-4.631h1.328l2.87.002c-1.717-5.048-4.248-11.431-7.09-16.761a64.138 64.138 0 0 1 3.357-.088c11.006 0 21.354 2.82 30.36 7.776-1.342 1.996-2.638 3.989-3.875 5.889-1.686 2.59-3.26 5.009-4.68 7.025H78.93a20.19 20.19 0 0 0-13.058 4.791L47.46 52.237l-33.696.459a24.107 24.107 0 0 0 12.176 2.956l.489-.012a3.056 3.056 0 0 1 3.042 3.786l-.636 2.58a10.17 10.17 0 0 1-3.368 5.383l-6.329 5.269a.41.41 0 0 0-.135.316l.088 2.939c.058 1.925 1.07 3.692 2.76 4.614 4.513 2.46 14.176 7.18 24.518 8.796 12 1.876 18.305-.598 21.37-1.8.57-.224 1.029-.404 1.39-.503.181-.045.452.27.452.27-8.86 5.6-12.616 7.412-23.212 7.095-10.596-.318-27.23-8.708-27.23-8.708-.407-.18-.768.407-.362.678 0 0 11.766 12.396 27.592 15.586 4.783.963 11.175.38 18.25-.266 11.565-1.056 24.954-2.278 36.119 2.818-6.496-1.029-15.279-1.194-25.975 1.286-11.083 2.57-16.623 7.183-22.462 12.047-3.857 3.212-7.844 6.533-13.647 9.446 8.168 4.224 17.44 6.609 27.268 6.609Zm40.573-111.16c2.637-3.245 5.459-5.733 7.571-5.071 5.328 1.67-2.395 29.622-2.395 29.622l-1.751-2.222a57.665 57.665 0 0 0-11.03-10.694s2.682-5.004 6.004-9.553a49.676 49.676 0 0 1 1.601-2.083Zm-8.959-5.986C104.434 6.751 112.312-2.46 119.15.595c7.369 3.296 7.311 24.493 5.558 44.73 4.274 8.717 6.674 18.52 6.674 28.885 0 36.283-29.411 65.697-65.69 65.697C29.41 139.907 0 110.493 0 74.21c0-29.103 18.922-53.787 45.135-62.416C46.136 5.918 47.95 1.635 51.535.739c2.99-.748 6.302 2.81 9.365 7.946a66.602 66.602 0 0 1 4.79-.172c11.554 0 22.411 2.984 31.844 8.222ZM64.948 32.14 43.515 48.776h-6.842l17.942-13.902a16.29 16.29 0 0 1 10.108-3.412c.36 0 .496.451.225.677Zm-.697 21.453c.09-2.484 1.445-4.606 3.432-5.826 4.02.587 7.678 1.761 10.884 4.471.135.633.226 1.31.18 2.032a7.245 7.245 0 0 1-7.225 6.91h-.316c-4.02-.18-7.135-3.567-6.955-7.587ZM11.634 67.1v3.597c0 3.446 1.126 6.798 3.206 9.545V71.3l-3.206-4.2Z"/>
      </svg>